<svg width="100" height="100" viewBox="0 0 100 100" xmlns="http://www.w3.org/2000/svg">
  <!-- Background circles -->
  <circle cx="0" cy="0" r="3" fill="#FCD34D" opacity="0.3" />
  <circle cx="50" cy="0" r="3" fill="#FCD34D" opacity="0.3" />
  <circle cx="100" cy="0" r="3" fill="#FCD34D" opacity="0.3" />
  <circle cx="0" cy="50" r="3" fill="#FCD34D" opacity="0.3" />
  <circle cx="50" cy="50" r="3" fill="#FCD34D" opacity="0.3" />
  <circle cx="100" cy="50" r="3" fill="#FCD34D" opacity="0.3" />
  <circle cx="0" cy="100" r="3" fill="#FCD34D" opacity="0.3" />
  <circle cx="50" cy="100" r="3" fill="#FCD34D" opacity="0.3" />
  <circle cx="100" cy="100" r="3" fill="#FCD34D" opacity="0.3" />
  
  <!-- Decorative lines -->
  <path d="M25 25 L75 75" stroke="#FB923C" stroke-width="1" opacity="0.2" />
  <path d="M75 25 L25 75" stroke="#FB923C" stroke-width="1" opacity="0.2" />
  
  <!-- Small decorative elements -->
  <path d="M20 50 L30 50 M25 45 L25 55" stroke="#FDBA74" stroke-width="1" opacity="0.3" />
  <path d="M70 50 L80 50 M75 45 L75 55" stroke="#FDBA74" stroke-width="1" opacity="0.3" />
  <path d="M50 20 L50 30 M45 25 L55 25" stroke="#FDBA74" stroke-width="1" opacity="0.3" />
  <path d="M50 70 L50 80 M45 75 L55 75" stroke="#FDBA74" stroke-width="1" opacity="0.3" />
  
  <!-- Compass-like elements -->
  <circle cx="25" cy="25" r="2" fill="#FB923C" opacity="0.2" />
  <circle cx="75" cy="75" r="2" fill="#FB923C" opacity="0.2" />
  <circle cx="75" cy="25" r="2" fill="#FB923C" opacity="0.2" />
  <circle cx="25" cy="75" r="2" fill="#FB923C" opacity="0.2" />
</svg>